<mxfile host="app.diagrams.net" modified="2024-02-15T19:27:07.289Z" agent="Mozilla/5.0 (Windows NT 10.0; Win64; x64) AppleWebKit/537.36 (KHTML, like Gecko) Chrome/121.0.0.0 Safari/537.36 Edg/121.0.0.0" etag="mnQNDhA-oLvVMGYzrfh_" version="23.1.5" type="github">
  <diagram name="Страница — 1" id="EEYmVfNQnNg-81AyQVDw">
    <mxGraphModel dx="1173" dy="772" grid="1" gridSize="10" guides="1" tooltips="1" connect="1" arrows="1" fold="1" page="1" pageScale="1" pageWidth="827" pageHeight="1169" math="0" shadow="0">
      <root>
        <mxCell id="0" />
        <mxCell id="1" parent="0" />
        <mxCell id="C20tDrQQrzY1eQzP2aa4-8" style="edgeStyle=orthogonalEdgeStyle;rounded=0;orthogonalLoop=1;jettySize=auto;html=1;exitX=0.5;exitY=1;exitDx=0;exitDy=0;entryX=0;entryY=0;entryDx=0;entryDy=0;" edge="1" parent="1" source="C20tDrQQrzY1eQzP2aa4-1" target="C20tDrQQrzY1eQzP2aa4-4">
          <mxGeometry relative="1" as="geometry" />
        </mxCell>
        <mxCell id="C20tDrQQrzY1eQzP2aa4-1" value="Zararli foydalanuvchi" style="rounded=0;whiteSpace=wrap;html=1;" vertex="1" parent="1">
          <mxGeometry x="200" y="40" width="120" height="60" as="geometry" />
        </mxCell>
        <mxCell id="C20tDrQQrzY1eQzP2aa4-13" style="edgeStyle=orthogonalEdgeStyle;rounded=0;orthogonalLoop=1;jettySize=auto;html=1;exitX=0.5;exitY=1;exitDx=0;exitDy=0;entryX=0.5;entryY=0;entryDx=0;entryDy=0;" edge="1" parent="1" source="C20tDrQQrzY1eQzP2aa4-2" target="C20tDrQQrzY1eQzP2aa4-4">
          <mxGeometry relative="1" as="geometry" />
        </mxCell>
        <mxCell id="C20tDrQQrzY1eQzP2aa4-2" value="Zararli ishlab chiqaruvchi" style="rounded=0;whiteSpace=wrap;html=1;" vertex="1" parent="1">
          <mxGeometry x="360" y="40" width="120" height="60" as="geometry" />
        </mxCell>
        <mxCell id="C20tDrQQrzY1eQzP2aa4-10" style="edgeStyle=orthogonalEdgeStyle;rounded=0;orthogonalLoop=1;jettySize=auto;html=1;exitX=0.5;exitY=1;exitDx=0;exitDy=0;entryX=1;entryY=0;entryDx=0;entryDy=0;" edge="1" parent="1" source="C20tDrQQrzY1eQzP2aa4-3" target="C20tDrQQrzY1eQzP2aa4-4">
          <mxGeometry relative="1" as="geometry" />
        </mxCell>
        <mxCell id="C20tDrQQrzY1eQzP2aa4-3" value="Tashqi raqib" style="rounded=0;whiteSpace=wrap;html=1;" vertex="1" parent="1">
          <mxGeometry x="520" y="40" width="120" height="60" as="geometry" />
        </mxCell>
        <mxCell id="C20tDrQQrzY1eQzP2aa4-4" value="Tahdid manbai" style="rounded=0;whiteSpace=wrap;html=1;" vertex="1" parent="1">
          <mxGeometry x="360" y="200" width="120" height="60" as="geometry" />
        </mxCell>
        <mxCell id="C20tDrQQrzY1eQzP2aa4-5" value="Tahdidlar va zaifliklar muammolari" style="rounded=0;whiteSpace=wrap;html=1;" vertex="1" parent="1">
          <mxGeometry x="360" y="310" width="120" height="60" as="geometry" />
        </mxCell>
        <mxCell id="C20tDrQQrzY1eQzP2aa4-6" value="Kiber xavf" style="rounded=0;whiteSpace=wrap;html=1;" vertex="1" parent="1">
          <mxGeometry x="360" y="420" width="120" height="60" as="geometry" />
        </mxCell>
        <mxCell id="C20tDrQQrzY1eQzP2aa4-19" value="" style="endArrow=classic;startArrow=classic;html=1;rounded=0;" edge="1" parent="1" source="C20tDrQQrzY1eQzP2aa4-5">
          <mxGeometry width="50" height="50" relative="1" as="geometry">
            <mxPoint x="370" y="310" as="sourcePoint" />
            <mxPoint x="420" y="260" as="targetPoint" />
          </mxGeometry>
        </mxCell>
        <mxCell id="C20tDrQQrzY1eQzP2aa4-20" value="" style="endArrow=classic;startArrow=classic;html=1;rounded=0;entryX=0.5;entryY=1;entryDx=0;entryDy=0;exitX=0.5;exitY=0;exitDx=0;exitDy=0;" edge="1" parent="1" source="C20tDrQQrzY1eQzP2aa4-6" target="C20tDrQQrzY1eQzP2aa4-5">
          <mxGeometry width="50" height="50" relative="1" as="geometry">
            <mxPoint x="390" y="420" as="sourcePoint" />
            <mxPoint x="440" y="370" as="targetPoint" />
          </mxGeometry>
        </mxCell>
        <mxCell id="C20tDrQQrzY1eQzP2aa4-21" value="Maxfiylik/Xavfsizlik muammolari" style="rounded=0;whiteSpace=wrap;html=1;" vertex="1" parent="1">
          <mxGeometry x="80" y="200" width="120" height="60" as="geometry" />
        </mxCell>
        <mxCell id="C20tDrQQrzY1eQzP2aa4-22" value="Xavfsiz aloqaning yo&#39;qligi" style="rounded=0;whiteSpace=wrap;html=1;" vertex="1" parent="1">
          <mxGeometry x="80" y="310" width="120" height="60" as="geometry" />
        </mxCell>
        <mxCell id="C20tDrQQrzY1eQzP2aa4-23" value="Ishonchsiz standart xususiyatlar" style="rounded=0;whiteSpace=wrap;html=1;" vertex="1" parent="1">
          <mxGeometry x="80" y="420" width="120" height="60" as="geometry" />
        </mxCell>
        <mxCell id="C20tDrQQrzY1eQzP2aa4-26" value="Autentifikatsiyaning yo&#39;qligi" style="rounded=0;whiteSpace=wrap;html=1;" vertex="1" parent="1">
          <mxGeometry x="640" y="200" width="120" height="60" as="geometry" />
        </mxCell>
        <mxCell id="C20tDrQQrzY1eQzP2aa4-27" value="Maxfiylikning yo&#39;qligi" style="rounded=0;whiteSpace=wrap;html=1;" vertex="1" parent="1">
          <mxGeometry x="640" y="310" width="120" height="60" as="geometry" />
        </mxCell>
        <mxCell id="C20tDrQQrzY1eQzP2aa4-28" value="Avtorizatsiyaning yo&#39;qligi" style="rounded=0;whiteSpace=wrap;html=1;" vertex="1" parent="1">
          <mxGeometry x="640" y="420" width="120" height="60" as="geometry" />
        </mxCell>
        <mxCell id="C20tDrQQrzY1eQzP2aa4-34" value="" style="shape=partialRectangle;whiteSpace=wrap;html=1;bottom=1;right=1;left=1;top=0;fillColor=none;routingCenterX=-0.5;direction=south;" vertex="1" parent="1">
          <mxGeometry x="580" y="230" width="60" height="220" as="geometry" />
        </mxCell>
        <mxCell id="C20tDrQQrzY1eQzP2aa4-39" value="" style="shape=partialRectangle;whiteSpace=wrap;html=1;bottom=1;right=1;left=1;top=0;fillColor=none;routingCenterX=-0.5;direction=south;" vertex="1" parent="1">
          <mxGeometry x="580" y="340" width="60" height="110" as="geometry" />
        </mxCell>
        <mxCell id="C20tDrQQrzY1eQzP2aa4-40" value="" style="shape=partialRectangle;whiteSpace=wrap;html=1;bottom=1;right=1;left=1;top=0;fillColor=none;routingCenterX=-0.5;direction=north;" vertex="1" parent="1">
          <mxGeometry x="200" y="220" width="60" height="220" as="geometry" />
        </mxCell>
        <mxCell id="C20tDrQQrzY1eQzP2aa4-41" value="" style="shape=partialRectangle;whiteSpace=wrap;html=1;bottom=1;right=1;left=1;top=0;fillColor=none;routingCenterX=-0.5;direction=north;" vertex="1" parent="1">
          <mxGeometry x="200" y="340" width="60" height="100" as="geometry" />
        </mxCell>
        <mxCell id="C20tDrQQrzY1eQzP2aa4-43" value="" style="endArrow=classic;html=1;rounded=0;exitX=1;exitY=0.5;exitDx=0;exitDy=0;" edge="1" parent="1" source="C20tDrQQrzY1eQzP2aa4-5">
          <mxGeometry width="50" height="50" relative="1" as="geometry">
            <mxPoint x="530" y="390" as="sourcePoint" />
            <mxPoint x="580" y="340" as="targetPoint" />
          </mxGeometry>
        </mxCell>
        <mxCell id="C20tDrQQrzY1eQzP2aa4-44" value="" style="endArrow=classic;html=1;rounded=0;exitX=0;exitY=0.5;exitDx=0;exitDy=0;entryX=1;entryY=1;entryDx=0;entryDy=0;" edge="1" parent="1" source="C20tDrQQrzY1eQzP2aa4-5" target="C20tDrQQrzY1eQzP2aa4-41">
          <mxGeometry width="50" height="50" relative="1" as="geometry">
            <mxPoint x="210" y="380" as="sourcePoint" />
            <mxPoint x="260" y="330" as="targetPoint" />
          </mxGeometry>
        </mxCell>
        <mxCell id="C20tDrQQrzY1eQzP2aa4-45" value="Orqa eshiklar" style="rounded=0;whiteSpace=wrap;html=1;" vertex="1" parent="1">
          <mxGeometry x="80" y="600" width="120" height="60" as="geometry" />
        </mxCell>
        <mxCell id="C20tDrQQrzY1eQzP2aa4-46" value="Masofaviy imtiyozlarga kirish" style="rounded=0;whiteSpace=wrap;html=1;" vertex="1" parent="1">
          <mxGeometry x="220" y="600" width="120" height="60" as="geometry" />
        </mxCell>
        <mxCell id="C20tDrQQrzY1eQzP2aa4-47" value="Qurilmani o&#39;g&#39;irlash" style="rounded=0;whiteSpace=wrap;html=1;" vertex="1" parent="1">
          <mxGeometry x="360" y="600" width="120" height="60" as="geometry" />
        </mxCell>
        <mxCell id="C20tDrQQrzY1eQzP2aa4-48" value="Shifrlanmagan zaxira nusxasi" style="rounded=0;whiteSpace=wrap;html=1;" vertex="1" parent="1">
          <mxGeometry x="640" y="600" width="120" height="60" as="geometry" />
        </mxCell>
        <mxCell id="C20tDrQQrzY1eQzP2aa4-49" value="Soxta ilovalar" style="rounded=0;whiteSpace=wrap;html=1;" vertex="1" parent="1">
          <mxGeometry x="500" y="600" width="120" height="60" as="geometry" />
        </mxCell>
        <mxCell id="C20tDrQQrzY1eQzP2aa4-50" value="" style="shape=partialRectangle;whiteSpace=wrap;html=1;bottom=1;right=1;left=1;top=0;fillColor=none;routingCenterX=-0.5;direction=west;" vertex="1" parent="1">
          <mxGeometry x="140" y="540" width="560" height="60" as="geometry" />
        </mxCell>
        <mxCell id="C20tDrQQrzY1eQzP2aa4-51" value="" style="shape=partialRectangle;whiteSpace=wrap;html=1;bottom=1;right=1;left=1;top=0;fillColor=none;routingCenterX=-0.5;direction=west;" vertex="1" parent="1">
          <mxGeometry x="280" y="540" width="280" height="60" as="geometry" />
        </mxCell>
        <mxCell id="C20tDrQQrzY1eQzP2aa4-52" value="" style="shape=partialRectangle;whiteSpace=wrap;html=1;bottom=1;right=1;left=1;top=0;fillColor=none;routingCenterX=-0.5;direction=west;" vertex="1" parent="1">
          <mxGeometry x="414" y="540" width="286" height="60" as="geometry" />
        </mxCell>
        <mxCell id="C20tDrQQrzY1eQzP2aa4-53" style="edgeStyle=orthogonalEdgeStyle;rounded=0;orthogonalLoop=1;jettySize=auto;html=1;entryX=0.5;entryY=0;entryDx=0;entryDy=0;" edge="1" parent="1">
          <mxGeometry relative="1" as="geometry">
            <mxPoint x="414" y="480" as="sourcePoint" />
            <mxPoint x="414" y="540" as="targetPoint" />
          </mxGeometry>
        </mxCell>
      </root>
    </mxGraphModel>
  </diagram>
</mxfile>
